<?xml version="1.0" standalone="no"?>
<!DOCTYPE svg PUBLIC "-//W3C//DTD SVG 20010904//EN"
 "http://www.w3.org/TR/2001/REC-SVG-20010904/DTD/svg10.dtd">
<svg version="1.0" xmlns="http://www.w3.org/2000/svg"
 width="152.000000pt" height="152.000000pt" viewBox="0 0 152.000000 152.000000"
 preserveAspectRatio="xMidYMid meet">
<metadata>
Created by potrace 1.11, written by Peter Selinger 2001-2013
</metadata>
<g transform="translate(0.000000,152.000000) scale(0.100000,-0.100000)"
fill="#000000" stroke="none">
<path d="M634 1423 c-8 -8 -21 -29 -30 -46 -8 -18 -23 -45 -32 -62 -92 -161
-142 -253 -142 -259 0 -5 -8 -20 -19 -34 -28 -41 -401 -720 -401 -731 0 -9 94
-176 111 -197 6 -8 194 -11 646 -10 l636 1 17 30 c9 17 34 63 55 102 46 86 61
40 -114 353 -27 47 -63 112 -81 145 -18 33 -52 94 -75 135 -76 136 -97 174
-138 250 -22 41 -43 80 -47 85 -4 6 -20 33 -35 60 -82 151 -100 181 -108 187
-6 3 -59 6 -119 6 -83 0 -112 -4 -124 -15z m171 -685 c22 -40 53 -95 68 -122
41 -75 57 -105 60 -113 1 -5 -76 -8 -170 -9 -97 0 -173 3 -173 8 0 5 24 51 53
101 29 51 66 118 82 149 17 32 32 58 35 58 3 0 24 -32 45 -72z"/>
</g>
</svg>
